ply
format ascii 1.0
comment VCGLIB generated
comment TextureFile PaintingMonalisa.jpg
element vertex 56
property float x
property float y
property float z
element face 108
property list uchar int vertex_indices
property list uchar float texcoord
end_header
-4.599745 33.25373 104.3798 
-4.599708 33.25365 16.44002 
-4.599652 -18.10954 16.44 
-4.599691 -18.10947 104.3798 
-3.064218 31.3287 102.4548 
-3.064167 -16.18443 102.4548 
-3.064129 -16.1845 18.36504 
-3.06418 31.32862 18.36506 
1.693997 49.69379 120.8199 
1.694088 -34.5495 120.8198 
3.229613 -34.5495 120.8198 
3.229521 49.69379 120.8199 
1.694141 -34.5496 0 
3.229665 -34.5496 0 
1.69405 49.6937 2.670288e-05 
3.229574 49.6937 3.814697e-05 
-4.599751 36.54174 107.6678 
-4.59971 36.54166 13.15202 
-4.599688 -21.39747 107.6678 
-4.599647 -21.39754 13.152 
-3.064225 36.54174 107.6678 
-3.064162 -21.39747 107.6678 
-3.064164 -20.0345 106.3049 
-3.064224 35.17877 106.3049 
-3.064185 36.54166 13.15202 
-3.064184 35.1787 14.51498 
-3.064123 -21.39754 13.152 
-3.064125 -20.03457 14.51497 
-0.836404 39.82976 110.9558 
-0.8363584 39.82967 9.864021 
-0.8363355 -24.68547 110.9558 
-0.8362898 -24.68557 9.864006 
0.6991197 39.82976 110.9558 
0.6991882 -24.68547 110.9558 
0.6991654 39.82967 9.864029 
0.6992338 -24.68557 9.86401 
1.694008 43.11777 114.2439 
1.694053 43.11768 6.576031 
1.694085 -27.97348 114.2438 
1.694131 -27.97357 6.576004 
3.229532 43.11777 114.2439 
3.229609 -27.97348 114.2438 
3.229579 43.11768 6.576038 
3.229657 -27.97357 6.576008 
1.694003 46.40578 117.5318 
1.694052 46.40569 3.288029 
1.694086 -31.26149 117.5318 
1.694136 -31.26158 3.288002 
3.229526 46.40578 117.5318 
3.229611 -31.26149 117.5318 
3.229578 46.40569 3.288029 
3.229661 -31.26158 3.288002 
-2.079003 33.25373 104.3798 
-2.078949 -18.10946 104.3798 
-2.07891 -18.10954 16.44001 
-2.078965 33.25366 16.44002 
3 0 1 2 6 0.402330 0.107785 0.891159 0.107785 0.891159 0.395020 
3 2 3 0 6 0.891159 0.395020 0.402330 0.395020 0.402330 0.107785 
3 0 3 18 6 0.402330 0.107785 0.402330 0.395020 0.384053 0.413407 
3 18 16 0 6 0.384053 0.413407 0.384053 0.089397 0.402330 0.107785 
3 16 18 30 6 0.384053 0.089397 0.384053 0.413407 0.365776 0.431795 
3 30 28 16 6 0.365776 0.431795 0.365776 0.071010 0.384053 0.089397 
3 17 16 28 6 0.909436 0.089397 0.384053 0.089397 0.365776 0.071010 
3 28 29 17 6 0.365776 0.071010 0.927712 0.071010 0.909436 0.089397 
3 19 17 29 6 0.909436 0.413407 0.909436 0.089397 0.927712 0.071010 
3 29 31 19 6 0.927712 0.071010 0.927712 0.431795 0.909436 0.413407 
3 18 19 31 6 0.384053 0.413407 0.909436 0.413407 0.927712 0.431795 
3 31 29 37 6 0.927712 0.431795 0.927712 0.071010 0.945989 0.052623 
3 37 39 31 6 0.945989 0.052623 0.945989 0.450182 0.927712 0.431795 
3 30 31 39 6 0.365776 0.431795 0.927712 0.431795 0.945989 0.450182 
3 39 38 30 6 0.945989 0.450182 0.347499 0.450182 0.365776 0.431795 
3 38 39 47 6 0.347499 0.450182 0.945989 0.450182 0.964266 0.468569 
3 47 46 38 6 0.964266 0.468569 0.329223 0.468569 0.347499 0.450182 
3 36 38 46 6 0.347499 0.052623 0.347499 0.450182 0.329223 0.468569 
3 46 44 36 6 0.329223 0.468569 0.329223 0.034235 0.347499 0.052623 
3 37 36 44 6 0.945989 0.052623 0.347499 0.052623 0.329223 0.034235 
3 44 45 37 6 0.329223 0.034235 0.964266 0.034235 0.945989 0.052623 
3 45 44 8 6 0.964266 0.034235 0.329223 0.034235 0.310946 0.015848 
3 8 14 45 6 0.310946 0.015848 0.982543 0.015848 0.964266 0.034235 
3 47 45 14 6 0.964266 0.468569 0.964266 0.034235 0.982543 0.015848 
3 14 12 47 6 0.982543 0.015848 0.982543 0.486957 0.964266 0.468569 
3 12 14 15 6 0.211829 0.031386 0.211828 0.976515 0.233081 0.976515 
3 15 13 12 6 0.233081 0.976515 0.233081 0.031386 0.211829 0.031386 
3 9 12 13 6 0.211828 0.976514 0.211829 0.031386 0.233081 0.031386 
3 13 10 9 6 0.233081 0.031386 0.233080 0.976514 0.211828 0.976514 
3 8 9 10 6 0.211828 0.976514 0.211828 0.031386 0.233080 0.031386 
3 10 11 8 6 0.233080 0.031386 0.233080 0.976514 0.211828 0.976514 
3 11 10 49 6 0.979078 0.508658 0.979078 0.979683 0.960801 0.961299 
3 49 48 11 6 0.960801 0.961299 0.960801 0.527042 0.979078 0.508658 
3 15 11 48 6 0.307487 0.508658 0.979078 0.508658 0.960801 0.527042 
3 48 50 15 6 0.960801 0.527042 0.325764 0.527042 0.307487 0.508658 
3 50 48 40 6 0.325764 0.527042 0.960801 0.527042 0.942524 0.545426 
3 40 42 50 6 0.942524 0.545426 0.344040 0.545426 0.325764 0.527042 
3 51 50 42 6 0.325764 0.961298 0.325764 0.527042 0.344040 0.545426 
3 42 43 51 6 0.344040 0.545426 0.344040 0.942914 0.325764 0.961298 
3 49 51 43 6 0.960801 0.961299 0.325764 0.961298 0.344040 0.942914 
3 43 41 49 6 0.344040 0.942914 0.942524 0.942914 0.960801 0.961299 
3 41 43 35 6 0.942524 0.942914 0.344040 0.942914 0.362317 0.924530 
3 35 33 41 6 0.362317 0.924530 0.924248 0.924530 0.942524 0.942914 
3 40 41 33 6 0.942524 0.545426 0.942524 0.942914 0.924248 0.924530 
3 33 32 40 6 0.924248 0.924530 0.924248 0.563810 0.942524 0.545426 
3 32 33 21 6 0.924248 0.563810 0.924248 0.924530 0.905971 0.906146 
3 21 20 32 6 0.905971 0.906146 0.905971 0.582194 0.924248 0.563810 
3 34 32 20 6 0.362317 0.563810 0.924248 0.563810 0.905971 0.582194 
3 20 24 34 6 0.905971 0.582194 0.380594 0.582194 0.362317 0.563810 
3 35 34 24 6 0.362317 0.924530 0.362317 0.563810 0.380594 0.582194 
3 24 26 35 6 0.380594 0.582194 0.380594 0.906146 0.362317 0.924530 
3 26 24 25 6 0.380594 0.906146 0.380594 0.582194 0.388170 0.589815 
3 25 27 26 6 0.388170 0.589815 0.388170 0.898526 0.380594 0.906146 
3 21 26 27 6 0.905971 0.906146 0.380594 0.906146 0.388170 0.898526 
3 27 22 21 6 0.388170 0.898526 0.898395 0.898526 0.905971 0.906146 
3 53 22 27 6 0.887694 0.887762 0.898395 0.898526 0.388170 0.898526 
3 27 54 53 6 0.388170 0.898526 0.398871 0.887762 0.887694 0.887762 
3 53 54 6 6 0.887694 0.887762 0.398871 0.887762 0.409571 0.876999 
3 6 5 53 6 0.409571 0.876999 0.876994 0.876999 0.887694 0.887762 
3 53 5 4 6 0.887694 0.887762 0.876994 0.876999 0.876994 0.611342 
3 4 52 53 6 0.876994 0.611342 0.887694 0.600578 0.887694 0.887762 
3 55 52 4 6 0.398871 0.600578 0.887694 0.600578 0.876994 0.611342 
3 4 7 55 6 0.876994 0.611342 0.409571 0.611341 0.398871 0.600578 
3 54 55 7 6 0.398871 0.887762 0.398871 0.600578 0.409571 0.611341 
3 25 55 54 6 0.388170 0.589815 0.398871 0.600578 0.398871 0.887762 
3 55 25 23 6 0.398871 0.600578 0.388170 0.589815 0.898395 0.589815 
3 6 7 4 6 0.409571 0.876999 0.409571 0.611341 0.876994 0.611342 
3 23 52 55 6 0.898395 0.589815 0.887694 0.600578 0.398871 0.600578 
3 52 23 22 6 0.887694 0.600578 0.898395 0.589815 0.898395 0.898526 
3 22 23 20 6 0.898395 0.898526 0.898395 0.589815 0.905971 0.582194 
3 4 5 6 6 0.876994 0.611342 0.876994 0.876999 0.409571 0.876999 
3 7 6 54 6 0.409571 0.611341 0.409571 0.876999 0.398871 0.887762 
3 22 53 52 6 0.898395 0.898526 0.887694 0.887762 0.887694 0.600578 
3 54 27 25 6 0.398871 0.887762 0.388170 0.898526 0.388170 0.589815 
3 23 25 24 6 0.898395 0.589815 0.388170 0.589815 0.380594 0.582194 
3 24 20 23 6 0.380594 0.582194 0.905971 0.582194 0.898395 0.589815 
3 32 34 42 6 0.924248 0.563810 0.362317 0.563810 0.344040 0.545426 
3 20 21 22 6 0.905971 0.582194 0.905971 0.906146 0.898395 0.898526 
3 26 21 33 6 0.380594 0.906146 0.905971 0.906146 0.924248 0.924530 
3 33 35 26 6 0.924248 0.924530 0.362317 0.924530 0.380594 0.906146 
3 34 35 43 6 0.362317 0.563810 0.362317 0.924530 0.344040 0.942914 
3 43 42 34 6 0.344040 0.942914 0.344040 0.545426 0.362317 0.563810 
3 50 51 13 6 0.325764 0.527042 0.325764 0.961298 0.307487 0.979683 
3 42 40 32 6 0.344040 0.545426 0.942524 0.545426 0.924248 0.563810 
3 41 40 48 6 0.942524 0.942914 0.942524 0.545426 0.960801 0.527042 
3 48 49 41 6 0.960801 0.527042 0.960801 0.961299 0.942524 0.942914 
3 51 49 10 6 0.325764 0.961298 0.960801 0.961299 0.979078 0.979683 
3 10 13 51 6 0.979078 0.979683 0.307487 0.979683 0.325764 0.961298 
3 12 9 46 6 0.982543 0.486957 0.310946 0.486957 0.329223 0.468569 
3 13 15 50 6 0.307487 0.979683 0.307487 0.508658 0.325764 0.527042 
3 11 15 14 6 0.233080 0.976515 0.233081 0.031386 0.211829 0.031386 
3 14 8 11 6 0.211829 0.031386 0.211828 0.976515 0.233080 0.976515 
3 9 8 44 6 0.310946 0.486957 0.310946 0.015848 0.329223 0.034235 
3 44 46 9 6 0.329223 0.034235 0.329223 0.468569 0.310946 0.486957 
3 38 36 28 6 0.347499 0.450182 0.347499 0.052623 0.365776 0.071010 
3 46 47 12 6 0.329223 0.468569 0.964266 0.468569 0.982543 0.486957 
3 45 47 39 6 0.964266 0.034235 0.964266 0.468569 0.945989 0.450182 
3 39 37 45 6 0.945989 0.450182 0.945989 0.052623 0.964266 0.034235 
3 36 37 29 6 0.347499 0.052623 0.945989 0.052623 0.927712 0.071010 
3 17 19 2 6 0.909436 0.089397 0.909436 0.413407 0.891159 0.395020 
3 29 28 36 6 0.927712 0.071010 0.365776 0.071010 0.347499 0.052623 
3 16 17 1 6 0.384053 0.089397 0.909436 0.089397 0.891159 0.107785 
3 28 30 38 6 0.365776 0.071010 0.365776 0.431795 0.347499 0.450182 
3 31 30 18 6 0.927712 0.431795 0.365776 0.431795 0.384053 0.413407 
3 19 18 3 6 0.909436 0.413407 0.384053 0.413407 0.402330 0.395020 
3 3 2 19 6 0.402330 0.395020 0.891159 0.395020 0.909436 0.413407 
3 2 1 17 6 0.891159 0.395020 0.891159 0.107785 0.909436 0.089397 
3 1 0 16 6 0.891159 0.107785 0.402330 0.107785 0.384053 0.089397 
